<svg width="16" height="16" viewBox="0 0 16 16" fill="none" xmlns="http://www.w3.org/2000/svg">
<path d="M9.06063 8L12.0294 5.03125C12.1703 4.8906 12.2495 4.69974 12.2497 4.50066C12.2499 4.30158 12.171 4.11058 12.0303 3.96968C11.8897 3.82879 11.6988 3.74953 11.4997 3.74936C11.3006 3.74918 11.1096 3.8281 10.9688 3.96875L8 6.9375L5.03125 3.96875C4.89035 3.82785 4.69926 3.7487 4.5 3.7487C4.30074 3.7487 4.10965 3.82785 3.96875 3.96875C3.82785 4.10964 3.7487 4.30074 3.7487 4.5C3.7487 4.69925 3.82785 4.89035 3.96875 5.03125L6.9375 8L3.96875 10.9687C3.82785 11.1096 3.7487 11.3007 3.7487 11.5C3.7487 11.6993 3.82785 11.8903 3.96875 12.0312C4.10965 12.1721 4.30074 12.2513 4.5 12.2513C4.69926 12.2513 4.89035 12.1721 5.03125 12.0312L8 9.0625L10.9688 12.0312C11.1096 12.1721 11.3007 12.2513 11.5 12.2513C11.6993 12.2513 11.8904 12.1721 12.0312 12.0312C12.1721 11.8903 12.2513 11.6993 12.2513 11.5C12.2513 11.3007 12.1721 11.1096 12.0312 10.9687L9.06063 8Z" fill="#252829"/>
</svg>
